<?xml version="1.0" encoding="UTF-8" standalone="no"?>
<!-- Generator: Adobe Illustrator 27.5.0, SVG Export Plug-In . SVG Version: 6.00 Build 0)  -->

<svg
   version="1.1"
   id="Camada_1"
   x="0px"
   y="0px"
   viewBox="0 0 1000 1000"
   style="enable-background:new 0 0 1000 1000;"
   xml:space="preserve"
   sodipodi:docname="logo1.svg"
   inkscape:version="1.4 (86a8ad7, 2024-10-11)"
   xmlns:inkscape="http://www.inkscape.org/namespaces/inkscape"
   xmlns:sodipodi="http://sodipodi.sourceforge.net/DTD/sodipodi-0.dtd"
   xmlns="http://www.w3.org/2000/svg"
   xmlns:svg="http://www.w3.org/2000/svg"><defs
   id="defs57" /><sodipodi:namedview
   id="namedview57"
   pagecolor="#ffffff"
   bordercolor="#000000"
   borderopacity="0.25"
   inkscape:showpageshadow="2"
   inkscape:pageopacity="0.0"
   inkscape:pagecheckerboard="0"
   inkscape:deskcolor="#d1d1d1"
   inkscape:zoom="0.553"
   inkscape:cx="499.09584"
   inkscape:cy="500"
   inkscape:window-width="1366"
   inkscape:window-height="715"
   inkscape:window-x="-8"
   inkscape:window-y="-8"
   inkscape:window-maximized="1"
   inkscape:current-layer="Camada_1" />
<g
   id="g7"
   transform="matrix(1.9100871,0,0,1.8949681,-441.75229,-427.46204)">
	<path
   style="fill:#1f293f"
   d="m 242.533,685.837 v -7.896 h 11.404 v -71.934 h -11.279 v -7.896 h 68.55 v 21.43 h -7.77 l -0.25,-13.659 H 262.46 v 32.207 h 40.228 v 8.021 H 262.46 v 31.831 h 11.905 v 7.896 z"
   id="path1" />
	<path
   style="fill:#1f293f"
   d="m 338.783,623.678 v 54.766 h 10.903 v 7.393 h -29.952 v -7.393 h 10.903 v -47.371 h -10.652 v -7.395 z m -9.775,-19.299 c 0,-3.885 3.007,-5.64 5.765,-5.64 2.757,0 5.765,1.755 5.765,5.64 0,4.01 -3.008,5.639 -5.765,5.639 -2.757,0 -5.765,-1.754 -5.765,-5.639 z"
   id="path2" />
	<path
   style="fill:#1f293f"
   d="m 376.004,678.443 h 10.276 v 7.393 h -29.325 v -7.393 h 11.028 v -47.246 h -10.778 v -7.269 h 18.171 l 0.376,11.153 c 5.514,-8.897 13.535,-12.281 22.057,-12.281 17.545,0 26.818,10.276 26.818,28.197 v 27.445 h 11.028 v 7.393 h -28.824 v -7.393 h 9.65 v -27.32 c 0,-14.036 -6.141,-20.678 -19.299,-20.678 -12.156,0 -21.179,8.897 -21.179,21.555 v 26.444 z"
   id="path3" />
	<path
   style="fill:#1f293f"
   d="m 517.618,678.568 v 7.268 h -18.171 c 0,-1.629 -0.752,-9.9 -0.752,-11.655 -4.888,9.275 -15.039,13.034 -24.187,12.908 -17.545,0 -31.581,-12.156 -31.581,-32.207 0,-19.801 14.036,-31.957 31.581,-31.957 9.775,0 19.926,4.387 24.313,13.409 l 0.125,-12.531 h 18.547 v 7.519 h -10.777 v 47.246 z m -66.67,-23.434 c 0,15.038 10.652,24.438 23.936,24.438 15.54,0 24.062,-11.655 24.312,-24.061 0.251,-12.783 -8.146,-24.814 -24.563,-24.814 -13.158,-10e-4 -23.685,9.524 -23.685,24.437 z"
   id="path4" />
	<path
   style="fill:#1f293f"
   d="m 545.315,678.443 h 10.276 v 7.393 h -29.325 v -7.393 h 11.028 v -47.246 h -10.777 v -7.269 h 18.172 l 0.376,11.153 c 5.514,-8.897 13.534,-12.281 22.056,-12.281 17.545,0 26.819,10.276 26.819,28.197 v 27.445 h 11.028 v 7.393 h -28.824 v -7.393 h 9.649 v -27.32 c 0,-14.036 -6.141,-20.678 -19.299,-20.678 -12.156,0 -21.18,8.897 -21.18,21.555 v 26.444 z"
   id="path5" />
	<path
   style="fill:#1f293f"
   d="m 668.258,677.315 c -6.392,6.391 -14.788,9.398 -23.059,9.398 -18.172,0 -32.96,-11.529 -32.96,-31.831 0,-21.054 14.788,-31.957 32.584,-31.957 7.394,0 14.662,2.256 21.054,6.141 l -0.251,14.913 h -7.269 v -10.651 c -3.885,-2.131 -9.148,-2.883 -13.534,-2.883 -13.785,0 -24.438,9.023 -24.438,24.438 0,15.414 11.028,24.061 24.813,24.061 6.391,0 13.158,-2.256 17.795,-7.017 z"
   id="path6" />
	<path
   style="fill:#1f293f"
   d="m 737.06,675.31 c -6.141,7.645 -16.919,11.404 -26.693,11.404 -18.297,0 -31.957,-12.156 -31.957,-31.956 0,-18.799 13.284,-31.957 31.581,-31.957 18.171,0 33.335,10.902 30.954,35.34 h -54.39 c 1.254,13.535 11.655,21.055 23.937,21.055 7.644,0 16.793,-3.134 21.18,-8.772 z m -3.759,-23.936 c -0.251,-13.785 -9.399,-21.18 -23.185,-21.18 -12.03,0 -22.057,7.52 -23.561,21.18 z"
   id="path7" />
</g>
<g
   id="g30"
   transform="matrix(1.9100871,0,0,1.8949681,-441.75229,-427.46204)">
	<path
   style="fill:#1f293f"
   d="m 284.048,728.711 v 1.597 h -8.02 v -1.597 h 3.092 v -9.617 h -14.782 v 9.617 h 3.126 v 1.597 h -8.02 v -1.597 h 3.194 v -20.593 h -3.161 v -1.598 h 7.918 v 1.598 h -3.059 v 9.412 h 14.782 v -9.412 h -3.058 v -1.598 h 7.917 v 1.598 h -3.126 v 20.593 z"
   id="path8" />
	<path
   style="fill:#1f293f"
   d="m 302.293,727.317 c -1.631,2.141 -4.587,3.194 -7.272,3.194 -4.689,0 -8.529,-3.229 -8.529,-8.598 0,-5.097 3.636,-8.665 8.461,-8.665 4.723,0 9.005,2.82 8.359,9.379 h -15.189 c 0.34,4.214 3.432,6.354 6.932,6.354 2.208,0 4.825,-0.951 6.082,-2.616 z m -0.475,-6.117 c 0.068,-4.18 -2.65,-6.456 -6.83,-6.456 -3.602,0 -6.491,2.345 -6.864,6.456 z"
   id="path9" />
	<path
   style="fill:#1f293f"
   d="m 308.952,715.016 h -3.092 v -1.495 h 4.52 l 0.102,3.297 c 0.952,-2.175 3.229,-3.467 5.709,-3.467 1.223,0 2.413,0.307 3.5,0.952 l -0.68,1.359 c -0.951,-0.544 -1.903,-0.816 -2.888,-0.816 -3.33,0.068 -5.539,2.549 -5.539,5.675 v 8.326 h 3.024 v 1.461 h -7.612 v -1.461 h 2.956 z"
   id="path10" />
	<path
   style="fill:#1f293f"
   d="m 336.68,727.317 c -1.631,2.141 -4.587,3.194 -7.272,3.194 -4.689,0 -8.529,-3.229 -8.529,-8.598 0,-5.097 3.636,-8.665 8.461,-8.665 4.723,0 9.005,2.82 8.359,9.379 H 322.51 c 0.34,4.214 3.432,6.354 6.932,6.354 2.208,0 4.825,-0.951 6.082,-2.616 z m -0.476,-6.117 c 0.068,-4.18 -2.65,-6.456 -6.83,-6.456 -3.602,0 -6.491,2.345 -6.864,6.456 z"
   id="path11" />
	<path
   style="fill:#1f293f"
   d="m 354.076,713.487 v 15.291 h 3.194 v 1.529 h -7.952 v -1.529 h 3.194 v -13.796 h -3.092 v -1.495 z m -2.073,-5.471 c 0,-0.883 0.68,-1.223 1.325,-1.223 0.578,0 1.257,0.34 1.257,1.257 0,0.918 -0.68,1.224 -1.325,1.224 -0.577,-10e-4 -1.257,-0.306 -1.257,-1.258 z"
   id="path12" />
	<path
   style="fill:#1f293f"
   d="m 372.56,718.313 h -1.427 l -0.068,-2.719 c -1.257,-0.646 -3.024,-0.985 -4.52,-0.985 -2.854,-0.034 -5.029,0.884 -5.029,3.194 0,2.209 2.48,2.685 5.131,3.092 2.888,0.476 7,0.952 6.932,4.894 -0.068,3.636 -3.738,4.825 -7,4.825 -2.685,0 -4.451,-0.646 -6.762,-1.936 v -3.738 h 1.495 l 0.034,2.753 c 1.529,0.85 3.534,1.393 5.301,1.393 2.175,0 5.301,-0.646 5.335,-3.364 0,-2.446 -2.617,-2.956 -5.505,-3.363 -2.821,-0.408 -6.593,-1.088 -6.593,-4.554 0,-3.33 3.194,-4.655 6.626,-4.655 2.107,-0.034 4.316,0.543 6.117,1.528 z"
   id="path13" />
	<path
   style="fill:#1f293f"
   d="m 389.141,708.458 v 5.063 h 5.709 v 1.394 h -5.709 v 10.228 c 0,2.276 0.442,3.941 3.092,3.941 0.815,0 1.971,-0.373 2.787,-0.781 l 0.578,1.325 c -1.054,0.544 -2.311,0.918 -3.364,0.918 -3.534,0 -4.689,-1.972 -4.689,-5.403 v -10.228 h -3.568 v -1.394 h 3.568 v -4.893 z"
   id="path14" />
	<path
   style="fill:#1f293f"
   d="m 399.81,707.981 h -3.127 v -1.461 h 4.69 v 10.5 c 1.427,-2.786 3.942,-3.703 6.321,-3.703 4.655,0 6.83,2.752 6.83,7.306 v 8.19 h 3.058 v 1.495 h -7.408 v -1.495 h 2.753 v -8.155 c 0,-3.942 -1.835,-5.777 -5.369,-5.845 -3.364,-0.068 -6.185,2.65 -6.185,6.15 v 7.85 h 2.889 v 1.495 h -7.612 v -1.495 h 3.16 z"
   id="path15" />
	<path
   style="fill:#1f293f"
   d="m 435.42,727.317 c -1.631,2.141 -4.587,3.194 -7.272,3.194 -4.689,0 -8.529,-3.229 -8.529,-8.598 0,-5.097 3.636,-8.665 8.461,-8.665 4.723,0 9.005,2.82 8.359,9.379 H 421.25 c 0.34,4.214 3.432,6.354 6.932,6.354 2.208,0 4.825,-0.951 6.082,-2.616 z m -0.476,-6.117 c 0.068,-4.18 -2.65,-6.456 -6.83,-6.456 -3.602,0 -6.491,2.345 -6.864,6.456 z"
   id="path16" />
	<path
   style="fill:#1f293f"
   d="m 463.622,727.997 c -1.665,1.699 -3.942,2.515 -6.151,2.515 -5.029,0 -8.801,-3.127 -8.801,-8.564 0,-5.471 3.772,-8.631 8.767,-8.631 1.937,0 3.908,0.577 5.573,1.767 l -0.068,3.738 h -1.461 v -2.957 c -1.189,-0.747 -2.685,-1.053 -4.044,-1.053 -3.874,0.033 -7.17,2.446 -7.17,7.136 0,4.418 3.024,7.034 7.238,7.034 1.801,0 3.738,-0.68 5.063,-2.073 z"
   id="path17" />
	<path
   style="fill:#1f293f"
   d="m 475.208,713.215 c 4.723,0 8.563,3.433 8.563,8.733 0,5.335 -3.874,8.598 -8.598,8.598 -4.689,0 -8.563,-3.263 -8.563,-8.598 10e-4,-5.369 3.874,-8.733 8.598,-8.733 z m -0.034,1.495 c -3.772,0 -6.966,2.787 -6.966,7.238 0,4.384 3.16,7.068 6.966,7.068 3.84,0 7,-2.685 7,-7.068 0,-4.451 -3.16,-7.238 -7,-7.238 z"
   id="path18" />
	<path
   style="fill:#1f293f"
   d="m 486.59,730.308 v -1.495 h 3.092 v -13.797 h -3.059 v -1.461 h 4.622 l 0.034,2.956 c 1.019,-2.345 3.296,-3.262 5.471,-3.262 2.685,0 5.335,1.155 6.219,4.18 1.087,-2.923 3.636,-4.214 6.218,-4.214 4.248,0 7.001,2.854 7.001,7.034 v 8.563 h 3.058 v 1.495 h -7.51 v -1.495 h 2.854 v -8.563 c 0,-3.262 -2.106,-5.505 -5.403,-5.505 -3.228,0 -5.471,2.379 -5.471,5.641 v 8.428 h 2.854 v 1.495 h -7.34 v -1.495 h 2.923 v -8.428 c 0,-3.296 -2.175,-5.607 -5.54,-5.607 -3.16,0.102 -5.301,2.412 -5.301,5.607 v 8.428 h 2.889 v 1.495 z"
   id="path19" />
	<path
   style="fill:#1f293f"
   d="m 520.331,715.016 v -1.495 h 4.621 c 0,0.884 0.034,2.923 0.034,3.84 1.359,-2.685 4.248,-4.043 7,-4.043 4.69,0.033 8.461,3.296 8.461,8.665 0,5.165 -3.67,8.631 -8.495,8.631 -2.718,0 -5.776,-1.325 -6.966,-4.01 v 10.433 h 3.092 v 1.461 h -7.476 v -1.461 h 2.753 v -22.02 h -3.024 z m 18.52,6.966 c 0,-4.588 -3.092,-7.068 -7.034,-7.068 -4.554,0 -6.762,3.33 -6.762,7.17 0,3.806 2.48,6.967 6.897,7 3.84,0 6.899,-2.718 6.899,-7.102 z"
   id="path20" />
	<path
   style="fill:#1f293f"
   d="m 563.927,728.813 v 1.495 h -4.588 c 0,-0.884 -0.102,-2.685 -0.102,-3.602 -1.359,2.718 -4.316,3.907 -6.933,3.907 -4.69,0 -8.529,-3.33 -8.529,-8.699 0,-5.335 3.84,-8.631 8.529,-8.631 2.753,0 5.777,1.325 6.966,3.976 v -3.738 h 4.622 v 1.529 h -3.059 v 13.763 z m -18.554,-6.865 c 0,4.451 3.16,7.136 7,7.136 4.553,0 6.898,-3.5 6.932,-7.067 0.034,-3.67 -2.311,-7.171 -7,-7.171 -3.84,0 -6.932,2.684 -6.932,7.102 z"
   id="path21" />
	<path
   style="fill:#1f293f"
   d="m 570.788,728.813 h 2.923 v 1.495 h -7.578 v -1.495 h 3.059 v -13.797 h -3.059 v -1.495 h 4.588 l 0.067,3.467 c 1.428,-2.719 3.942,-3.738 6.287,-3.773 4.689,0 7.271,2.753 7.271,7.442 v 8.155 h 3.093 v 1.495 h -7.51 v -1.495 h 2.786 v -8.122 c 0,-3.941 -2.039,-5.946 -5.709,-5.946 -3.5,0.034 -6.219,2.685 -6.219,6.219 v 7.85 z"
   id="path22" />
	<path
   style="fill:#1f293f"
   d="m 599.706,715.016 v -1.495 h 7.034 v 1.495 h -2.413 l -8.529,20.525 c -1.258,3.092 -4.078,3.976 -7.136,1.902 l 0.747,-1.359 c 1.869,1.326 3.772,1.359 4.825,-0.985 l 2.107,-4.961 -6.49,-15.122 h -2.583 v -1.495 h 7.034 v 1.495 h -2.685 l 3.67,8.496 1.937,4.961 1.869,-4.995 3.433,-8.462 z"
   id="path23" />
	<path
   style="fill:#1f293f"
   d="m 620.5,708.458 v 5.063 h 5.708 v 1.394 H 620.5 v 10.228 c 0,2.276 0.441,3.941 3.092,3.941 0.815,0 1.971,-0.373 2.786,-0.781 l 0.578,1.325 c -1.054,0.544 -2.311,0.918 -3.364,0.918 -3.534,0 -4.69,-1.972 -4.69,-5.403 v -10.228 h -3.568 v -1.394 h 3.568 v -4.893 z"
   id="path24" />
	<path
   style="fill:#1f293f"
   d="m 648.941,728.813 v 1.495 h -4.588 c 0,-0.884 -0.101,-2.685 -0.101,-3.602 -1.359,2.718 -4.317,3.907 -6.933,3.907 -4.689,0 -8.529,-3.33 -8.529,-8.699 0,-5.335 3.84,-8.631 8.529,-8.631 2.753,0 5.777,1.325 6.966,3.976 v -3.738 h 4.622 v 1.529 h -3.059 v 13.763 z m -18.554,-6.865 c 0,4.451 3.161,7.136 7.001,7.136 4.553,0 6.897,-3.5 6.932,-7.067 0.034,-3.67 -2.31,-7.171 -7,-7.171 -3.841,0 -6.933,2.684 -6.933,7.102 z"
   id="path25" />
	<path
   style="fill:#1f293f"
   d="m 653.696,733.604 c -0.068,3.5 3.296,5.132 6.763,5.165 3.364,0.034 6.796,-1.358 6.796,-4.621 0,-3.602 -3.704,-4.621 -6.83,-4.621 -5.064,0 -8.665,-2.957 -8.665,-8.19 0,-5.438 4.485,-8.189 8.665,-8.189 1.767,0 3.874,0.543 5.165,1.461 l 1.733,-2.039 1.155,0.884 -1.768,2.106 c 1.19,1.291 2.311,2.719 2.311,5.777 0,2.752 -1.665,6.388 -5.335,7.271 2.99,0.646 5.199,2.413 5.199,5.505 0,4.146 -4.247,6.219 -8.461,6.185 -4.485,-0.034 -8.393,-2.311 -8.258,-6.694 z m 6.763,-5.539 c 4.247,0 7,-3.16 7,-6.694 0,-4.689 -3.534,-6.694 -7.034,-6.694 -3.364,0 -7.068,2.073 -7.068,6.661 0.034,4.552 3.125,6.727 7.102,6.727 z"
   id="path26" />
	<path
   style="fill:#1f293f"
   d="m 671.501,706.521 h 4.655 v 22.258 h 3.16 v 1.529 h -7.884 v -1.529 h 3.16 V 708.016 H 671.5 v -1.495 z"
   id="path27" />
	<path
   style="fill:#1f293f"
   d="m 685.839,713.487 v 15.291 h 3.194 v 1.529 h -7.951 v -1.529 h 3.193 v -13.796 h -3.092 v -1.495 z m -2.073,-5.471 c 0,-0.883 0.68,-1.223 1.326,-1.223 0.577,0 1.257,0.34 1.257,1.257 0,0.918 -0.68,1.224 -1.325,1.224 -0.579,-10e-4 -1.258,-0.306 -1.258,-1.258 z"
   id="path28" />
	<path
   style="fill:#1f293f"
   d="m 695.454,728.813 h 2.923 v 1.495 h -7.578 v -1.495 h 3.059 v -13.797 h -3.059 v -1.495 h 4.588 l 0.067,3.467 c 1.428,-2.719 3.942,-3.738 6.287,-3.773 4.689,0 7.271,2.753 7.271,7.442 v 8.155 h 3.093 v 1.495 h -7.51 v -1.495 h 2.786 v -8.122 c 0,-3.941 -2.039,-5.946 -5.709,-5.946 -3.5,0.034 -6.219,2.685 -6.219,6.219 v 7.85 z"
   id="path29" />
	<path
   style="fill:#1f293f"
   d="m 729.944,727.317 c -1.632,2.141 -4.588,3.194 -7.272,3.194 -4.69,0 -8.529,-3.229 -8.529,-8.598 0,-5.097 3.636,-8.665 8.461,-8.665 4.724,0 9.006,2.82 8.359,9.379 h -15.19 c 0.34,4.214 3.433,6.354 6.933,6.354 2.209,0 4.825,-0.951 6.083,-2.616 z m -0.476,-6.117 c 0.068,-4.18 -2.65,-6.456 -6.83,-6.456 -3.602,0 -6.49,2.345 -6.864,6.456 z"
   id="path30" />
</g>
<polygon
   style="fill:#414749"
   points="564.236,319.74 564.236,319.381 424.438,384.399 424.438,463.464 378.809,405.949 378.809,405.62 239.011,470.637 239.011,572.93 378.809,572.93 378.809,514.681 424.438,572.93 424.438,572.919 424.438,572.93 564.236,572.93 564.236,514.681 609.865,570.553 609.865,572.93 749.663,572.93 749.663,233.143 609.865,298.16 609.865,373.749 "
   id="polygon30"
   transform="matrix(1.9100871,0,0,1.8949681,-441.75229,-427.46204)" />
<g
   id="g57"
   transform="matrix(1.9100871,0,0,1.8949681,-441.75229,-427.46204)">
	<linearGradient
   id="SVGID_1_"
   gradientUnits="userSpaceOnUse"
   x1="378.80911"
   y1="489.43961"
   x2="424.43759"
   y2="489.43961">
		<stop
   offset="0"
   style="stop-color:#0D1322"
   id="stop30" />
		<stop
   offset="0.3649"
   style="stop-color:#18202E"
   id="stop31" />
		<stop
   offset="1"
   style="stop-color:#2C3A47"
   id="stop32" />
	</linearGradient>
	<polygon
   style="fill:url(#SVGID_1_)"
   points="378.809,405.949 424.438,464.198 424.438,572.93 378.809,514.681 "
   id="polygon32" />
	
		<linearGradient
   id="SVGID_00000099639672888664189720000002830003360826446263_"
   gradientUnits="userSpaceOnUse"
   x1="564.2359"
   y1="446.33521"
   x2="611.80621"
   y2="446.33521">
		<stop
   offset="0"
   style="stop-color:#0D1322"
   id="stop33" />
		<stop
   offset="0.3649"
   style="stop-color:#18202E"
   id="stop34" />
		<stop
   offset="1"
   style="stop-color:#2C3A47"
   id="stop35" />
	</linearGradient>
	<polygon
   style="fill:url(#SVGID_00000099639672888664189720000002830003360826446263_)"
   points="564.236,319.74 611.806,376.048 611.806,572.93 564.236,514.681 "
   id="polygon35" />
	
		<linearGradient
   id="SVGID_00000007426005325239515530000003027931297069093544_"
   gradientUnits="userSpaceOnUse"
   x1="308.90991"
   y1="572.9303"
   x2="308.90991"
   y2="405.6196">
		<stop
   offset="0"
   style="stop-color:#0D1322"
   id="stop36" />
		<stop
   offset="1"
   style="stop-color:#414749"
   id="stop37" />
	</linearGradient>
	<polygon
   style="fill:url(#SVGID_00000007426005325239515530000003027931297069093544_)"
   points="378.809,572.93 378.809,405.62 239.011,470.637 239.011,572.93 "
   id="polygon37" />
	
		<linearGradient
   id="SVGID_00000174596084429781749410000006981752172379466394_"
   gradientUnits="userSpaceOnUse"
   x1="494.33691"
   y1="572.9303"
   x2="494.33691"
   y2="319.3812">
		<stop
   offset="0"
   style="stop-color:#0D1322"
   id="stop38" />
		<stop
   offset="0.2007"
   style="stop-color:#191F2B"
   id="stop39" />
		<stop
   offset="0.5975"
   style="stop-color:#333A3F"
   id="stop40" />
		<stop
   offset="0.7806"
   style="stop-color:#414749"
   id="stop41" />
	</linearGradient>
	<polygon
   style="fill:url(#SVGID_00000174596084429781749410000006981752172379466394_)"
   points="564.236,572.93 564.236,319.381 424.438,384.399 424.438,572.93 "
   id="polygon41" />
	
		<linearGradient
   id="SVGID_00000079446588980662883910000016245246812743093386_"
   gradientUnits="userSpaceOnUse"
   x1="679.76361"
   y1="572.9303"
   x2="679.76361"
   y2="233.14281">
		<stop
   offset="0"
   style="stop-color:#0D1322"
   id="stop42" />
		<stop
   offset="0.1121"
   style="stop-color:#111725"
   id="stop43" />
		<stop
   offset="0.2619"
   style="stop-color:#1C232E"
   id="stop44" />
		<stop
   offset="0.4322"
   style="stop-color:#2C333A"
   id="stop45" />
		<stop
   offset="0.5969"
   style="stop-color:#414749"
   id="stop46" />
		<stop
   offset="0.6829"
   style="stop-color:#444A4C"
   id="stop47" />
		<stop
   offset="0.7605"
   style="stop-color:#4D5355"
   id="stop48" />
		<stop
   offset="0.8348"
   style="stop-color:#5D6264"
   id="stop49" />
		<stop
   offset="0.9071"
   style="stop-color:#767B7D"
   id="stop50" />
		<stop
   offset="0.9774"
   style="stop-color:#999FA2"
   id="stop51" />
		<stop
   offset="1"
   style="stop-color:#A9B0B4"
   id="stop52" />
	</linearGradient>
	<polygon
   style="fill:url(#SVGID_00000079446588980662883910000016245246812743093386_)"
   points="749.663,572.93 749.663,233.143 609.865,298.16 609.865,572.93 "
   id="polygon52" />
	<rect
   x="242.214"
   y="474.55399"
   style="fill:#414749"
   width="0.97100002"
   height="95.140999"
   id="rect52" />
	<rect
   x="375.41101"
   y="412.116"
   style="fill:#414749"
   width="0.97100002"
   height="157.578"
   id="rect53" />
	<rect
   x="427.18799"
   y="388.151"
   style="fill:#414749"
   width="0.97100002"
   height="181.54401"
   id="rect54" />
	<rect
   x="559.867"
   y="326.34201"
   style="fill:#414749"
   width="0.97100002"
   height="243.353"
   id="rect55" />
	<rect
   x="613.909"
   y="301.74799"
   style="fill:#414749"
   width="0.97100002"
   height="267.94699"
   id="rect56" />
	<rect
   x="745.35901"
   y="240.586"
   style="fill:#414749"
   width="0.97100002"
   height="329.108"
   id="rect57" />
</g>
</svg>
